<svg height="464pt" viewBox="0 0 464 464" width="464pt" xmlns="http://www.w3.org/2000/svg"><path d="m120 0h224c8.835938 0 16 7.164062 16 16v136c0 8.835938-7.164062 16-16 16h-224c-8.835938 0-16-7.164062-16-16v-136c0-8.835938 7.164062-16 16-16zm0 0" fill="#b2e8f9"/><path d="m16 280h112c8.835938 0 16 7.164062 16 16v152c0 8.835938-7.164062 16-16 16h-112c-8.835938 0-16-7.164062-16-16v-152c0-8.835938 7.164062-16 16-16zm0 0" fill="#7fcac9"/><path d="m400 304h48c8.835938 0 16 7.164062 16 16v112c0 8.835938-7.164062 16-16 16h-48c-8.835938 0-16-7.164062-16-16v-112c0-8.835938 7.164062-16 16-16zm0 0" fill="#7fcac9"/><path d="m208 168h48v32h-48zm0 0" fill="#aabece"/><path d="m152 200h160c8.835938 0 16 7.164062 16 16s-7.164062 16-16 16h-160c-8.835938 0-16-7.164062-16-16s7.164062-16 16-16zm0 0" fill="#7d8d9c"/><path d="m0 432h144v16c0 8.835938-7.164062 16-16 16h-112c-8.835938 0-16-7.164062-16-16zm0 0" fill="#7d8d9c"/><path d="m16 280h112c8.835938 0 16 7.164062 16 16v16h-144v-16c0-8.835938 7.164062-16 16-16zm0 0" fill="#7d8d9c"/><path d="m384 416h80v16c0 8.835938-7.164062 16-16 16h-48c-8.835938 0-16-7.164062-16-16zm0 0" fill="#7d8d9c"/><path d="m104 136h256v16c0 8.835938-7.164062 16-16 16h-224c-8.835938 0-16-7.164062-16-16zm0 0" fill="#7d8d9c"/><g fill="#dd3e46"><path d="m56 128h16v16h-16zm0 0"/><path d="m56 192h16v16h-16zm0 0"/><path d="m56 160h16v16h-16zm0 0"/><path d="m64 256c-1.582031 0-3.125-.46875-4.441406-1.34375l-24-16c-3.675782-2.453125-4.667969-7.421875-2.214844-11.097656 2.453125-3.675782 7.421875-4.667969 11.097656-2.214844l19.558594 13.054688 19.558594-13.039063c3.675781-2.453125 8.644531-1.460937 11.097656 2.214844 2.453125 3.679687 1.460938 8.644531-2.214844 11.097656l-24 16c-1.316406.871094-2.863281 1.332031-4.441406 1.328125zm0 0"/><path d="m216 360h16v16h-16zm0 0"/><path d="m184 360h16v16h-16zm0 0"/><path d="m280 360h16v16h-16zm0 0"/><path d="m248 360h16v16h-16zm0 0"/><path d="m320 400c-2.949219-.003906-5.660156-1.628906-7.050781-4.230469-1.386719-2.601562-1.234375-5.753906.402343-8.210937l13.046876-19.558594-13.039063-19.558594c-2.453125-3.675781-1.460937-8.644531 2.214844-11.097656 3.679687-2.453125 8.644531-1.460938 11.097656 2.214844l16 24c1.792969 2.691406 1.792969 6.191406 0 8.882812l-16 24c-1.488281 2.226563-3.992187 3.5625-6.671875 3.558594zm0 0"/><path d="m424 240h16v16h-16zm0 0"/><path d="m424 176h16v16h-16zm0 0"/><path d="m424 144h16v16h-16zm0 0"/><path d="m424 208h16v16h-16zm0 0"/><path d="m408 184c-2.675781.003906-5.179688-1.332031-6.664062-3.558594l-16-24c-1.792969-2.691406-1.792969-6.191406 0-8.882812l16-24c2.453124-3.675782 7.421874-4.667969 11.097656-2.214844 3.675781 2.453125 4.667968 7.421875 2.214844 11.097656l-13.046876 19.558594 13.039063 19.558594c1.636719 2.453125 1.789063 5.609375.402344 8.207031-1.386719 2.601563-4.09375 4.230469-7.042969 4.234375zm0 0"/></g><path d="m136 64c-4.417969 0-8-3.582031-8-8v-16c0-8.835938 7.164062-16 16-16h16c4.417969 0 8 3.582031 8 8s-3.582031 8-8 8h-16v16c0 4.417969-3.582031 8-8 8zm0 0" fill="#2d75bb"/><path d="m320 112h-16c-4.417969 0-8-3.582031-8-8s3.582031-8 8-8h16v-16c0-4.417969 3.582031-8 8-8s8 3.582031 8 8v16c0 8.835938-7.164062 16-16 16zm0 0" fill="#2d75bb"/><path d="m112 408h-16c-4.417969 0-8-3.582031-8-8s3.582031-8 8-8h8v-8c0-4.417969 3.582031-8 8-8s8 3.582031 8 8v16c0 4.417969-3.582031 8-8 8zm0 0" fill="#fff"/><path d="m32 368c-4.417969 0-8-3.582031-8-8v-16c0-4.417969 3.582031-8 8-8h16c4.417969 0 8 3.582031 8 8s-3.582031 8-8 8h-8v8c0 4.417969-3.582031 8-8 8zm0 0" fill="#fff"/><path d="m432 344h-16c-4.417969 0-8-3.582031-8-8s3.582031-8 8-8h16c4.417969 0 8 3.582031 8 8s-3.582031 8-8 8zm0 0" fill="#fff"/></svg>