<svg height="464pt" viewBox="0 0 464 464" width="464pt" xmlns="http://www.w3.org/2000/svg"><path d="m16 0h432c8.835938 0 16 7.164062 16 16v336c0 8.835938-7.164062 16-16 16h-432c-8.835938 0-16-7.164062-16-16v-336c0-8.835938 7.164062-16 16-16zm0 0" fill="#b2e8f9"/><path d="m272 176c0 61.855469-50.144531 112-112 112s-112-50.144531-112-112 50.144531-112 112-112 112 50.144531 112 112zm0 0" fill="#aabece"/><path d="m0 336h464v16c0 8.835938-7.164062 16-16 16h-432c-8.835938 0-16-7.164062-16-16zm0 0" fill="#7d8d9c"/><path d="m280 432h-96l16-64h64zm0 0" fill="#aabece"/><path d="m432 448c0 8.835938-7.164062 16-16 16h-368c-8.835938 0-16-7.164062-16-16s7.164062-16 16-16h368c8.835938 0 16 7.164062 16 16zm0 0" fill="#7d8d9c"/><path d="m210.910156 176h61.089844c.019531-19.664062-5.164062-38.984375-15.023438-56h-52.898437c4.648437 18.300781 6.941406 37.117188 6.832031 56zm0 0" fill="#aabece"/><path d="m115.921875 120h-52.898437c-9.859376 17.015625-15.042969 36.335938-15.023438 56h61.089844c-.109375-18.882812 2.183594-37.699219 6.832031-56zm0 0" fill="#aabece"/><path d="m210.910156 176c.109375-18.882812-2.183594-37.699219-6.832031-56h-88.15625c-4.648437 18.300781-6.941406 37.117188-6.832031 56zm0 0" fill="#7d8d9c"/><path d="m63.023438 120h52.898437c8.796875-33.464844 25.238281-56 44.078125-56-40.011719-.007812-76.984375 21.34375-96.976562 56zm0 0" fill="#7d8d9c"/><path d="m204.078125 120h52.898437c-19.992187-34.65625-56.964843-56.007812-96.976562-56 18.839844 0 35.28125 22.535156 44.078125 56zm0 0" fill="#7d8d9c"/><path d="m115.921875 120h88.15625c-8.796875-33.464844-25.238281-56-44.078125-56s-35.28125 22.535156-44.078125 56zm0 0" fill="#aabece"/><path d="m204.078125 232h52.898437c9.859376-17.015625 15.042969-36.335938 15.023438-56h-61.089844c.109375 18.882812-2.183594 37.699219-6.832031 56zm0 0" fill="#7d8d9c"/><path d="m48 176c-.019531 19.664062 5.164062 38.984375 15.023438 56h52.898437c-4.648437-18.300781-6.941406-37.117188-6.832031-56zm0 0" fill="#7d8d9c"/><path d="m109.089844 176c-.109375 18.882812 2.183594 37.699219 6.832031 56h88.15625c4.648437-18.300781 6.941406-37.117188 6.832031-56zm0 0" fill="#aabece"/><path d="m256.976562 232h-52.898437c-8.796875 33.464844-25.238281 56-44.078125 56 40.011719.007812 76.984375-21.34375 96.976562-56zm0 0" fill="#aabece"/><path d="m115.921875 232h-52.898437c19.992187 34.65625 56.964843 56.007812 96.976562 56-18.839844 0-35.28125-22.535156-44.078125-56zm0 0" fill="#aabece"/><path d="m204.078125 232h-88.15625c8.796875 33.464844 25.238281 56 44.078125 56s35.28125-22.535156 44.078125-56zm0 0" fill="#7d8d9c"/><path d="m379.3125 224h12.6875c4.417969 0 8-3.582031 8-8s-3.582031-8-8-8h-32c-4.417969 0-8 3.582031-8 8v32c0 4.417969 3.582031 8 8 8s8-3.582031 8-8v-12.6875l18.34375 18.34375c3.140625 3.03125 8.128906 2.988281 11.214844-.097656 3.085937-3.085938 3.128906-8.074219.097656-11.214844zm0 0" fill="#dd3e46"/><g fill="#2d75bb"><path d="m32 72c-4.417969 0-8-3.582031-8-8v-16c0-13.253906 10.746094-24 24-24h16c4.417969 0 8 3.582031 8 8s-3.582031 8-8 8h-16c-4.417969 0-8 3.582031-8 8v16c0 4.417969-3.582031 8-8 8zm0 0"/><path d="m120 40h-24c-4.417969 0-8-3.582031-8-8s3.582031-8 8-8h24c4.417969 0 8 3.582031 8 8s-3.582031 8-8 8zm0 0"/><path d="m416 312h-16c-4.417969 0-8-3.582031-8-8s3.582031-8 8-8h16c4.417969 0 8-3.582031 8-8v-16c0-4.417969 3.582031-8 8-8s8 3.582031 8 8v16c0 13.253906-10.746094 24-24 24zm0 0"/><path d="m368 312h-24c-4.417969 0-8-3.582031-8-8s3.582031-8 8-8h24c4.417969 0 8 3.582031 8 8s-3.582031 8-8 8zm0 0"/></g><path d="m256 120h144c8.835938 0 16 7.164062 16 16v32c0 8.835938-7.164062 16-16 16h-144c-8.835938 0-16-7.164062-16-16v-32c0-8.835938 7.164062-16 16-16zm0 0" fill="#fff"/><path d="m296 144h16v16h-16zm0 0" fill="#2d75bb"/><path d="m328 144h16v16h-16zm0 0" fill="#2d75bb"/><path d="m360 144h16v16h-16zm0 0" fill="#2d75bb"/></svg>