<svg height="472pt" viewBox="-36 0 472 472" width="472pt" xmlns="http://www.w3.org/2000/svg"><path d="m337.457031 392h61.296875c-3.851562-34.578125-16.855468-67.5-37.675781-95.375l-35.628906 35.253906-24.257813-24 37.183594-36.800781c-33.292969-31.609375-76.4375-50.816406-122.207031-54.398437v63.320312h-32.335938v-63.304688c-45.769531 3.582032-88.914062 22.789063-122.207031 54.402344l37.183594 36.796875-24.257813 24-35.628906-35.253906c-20.816406 27.871094-33.820313 60.789063-37.675781 95.359375h61.296875v32h-62.542969v48h400v-48h-62.542969zm0 0" fill="#ffd782"/><path d="m200 376c53.019531 0 96 42.980469 96 96h-192c0-53.019531 42.980469-96 96-96zm0 0" fill="#fff69a"/><path d="m200 312-31.257812 125.007812c-2.101563 8.414063-.210938 17.328126 5.125 24.160157 5.335937 6.835937 13.523437 10.832031 22.195312 10.832031h7.875c8.671875 0 16.859375-3.996094 22.195312-10.832031 5.335938-6.832031 7.226563-15.746094 5.125-24.160157zm0 0" fill="#394d5c"/><path d="m216.167969 280v-63.304688c-5.3125-.414062-10.664063-.695312-16.078125-.695312-5.417969 0-10.777344.28125-16.089844.695312v63.304688zm0 0" fill="#f49c60"/><path d="m64 392h-62.726562c-.835938 7.261719-1.2617192 14.570312-1.273438 21.878906v10.121094h64zm0 0" fill="#f49c60"/><path d="m98.808594 307.878906-37.183594-36.800781c-8.285156 7.847656-15.882812 16.390625-22.703125 25.539063l35.628906 35.253906zm0 0" fill="#f49c60"/><path d="m398.726562 392h-62.726562v32h64v-10.121094c-.011719-7.308594-.4375-14.617187-1.273438-21.878906zm0 0" fill="#f49c60"/><path d="m325.449219 331.878906 35.628906-35.253906c-6.8125-9.144531-14.402344-17.6875-22.679687-25.535156l-37.183594 36.796875zm0 0" fill="#f49c60"/><g fill="#dd3e46"><path d="m304 16h-64c-4.417969 0-8-3.582031-8-8s3.582031-8 8-8h64c4.417969 0 8 3.582031 8 8s-3.582031 8-8 8zm0 0"/><path d="m304 48h-64c-4.417969 0-8-3.582031-8-8s3.582031-8 8-8h64c4.417969 0 8 3.582031 8 8s-3.582031 8-8 8zm0 0"/><path d="m160 160h-64c-4.417969 0-8-3.582031-8-8s3.582031-8 8-8h64c4.417969 0 8 3.582031 8 8s-3.582031 8-8 8zm0 0"/><path d="m160 192h-64c-4.417969 0-8-3.582031-8-8s3.582031-8 8-8h64c4.417969 0 8 3.582031 8 8s-3.582031 8-8 8zm0 0"/><path d="m103.511719 72-7.839844 48h62.695313l-7.839844-48h25.472656l-48-64-48 64zm0 0"/><path d="m247.511719 120-7.839844-48h62.695313l-7.839844 48h25.472656l-48 64-48-64zm0 0"/></g></svg>