<svg height="464pt" viewBox="0 0 464 464" width="464pt" xmlns="http://www.w3.org/2000/svg"><path d="m16 0h432c8.835938 0 16 7.164062 16 16v304c0 8.835938-7.164062 16-16 16h-432c-8.835938 0-16-7.164062-16-16v-304c0-8.835938 7.164062-16 16-16zm0 0" fill="#b2e8f9"/><path d="m0 272h464v48c0 8.835938-7.164062 16-16 16h-432c-8.835938 0-16-7.164062-16-16zm0 0" fill="#7d8d9c"/><path d="m48 432h368v16c0 8.835938-7.164062 16-16 16h-336c-8.835938 0-16-7.164062-16-16zm0 0" fill="#7d8d9c"/><path d="m32 72c-4.417969 0-8-3.582031-8-8v-16c0-13.253906 10.746094-24 24-24h16c4.417969 0 8 3.582031 8 8s-3.582031 8-8 8h-16c-4.417969 0-8 3.582031-8 8v16c0 4.417969-3.582031 8-8 8zm0 0" fill="#2d75bb"/><path d="m120 40h-24c-4.417969 0-8-3.582031-8-8s3.582031-8 8-8h24c4.417969 0 8 3.582031 8 8s-3.582031 8-8 8zm0 0" fill="#2d75bb"/><path d="m320 208h96c8.835938 0 16 7.164062 16 16v224c0 8.835938-7.164062 16-16 16h-96c-8.835938 0-16-7.164062-16-16v-224c0-8.835938 7.164062-16 16-16zm0 0" fill="#7fcac9"/><path d="m304 432h128v16c0 8.835938-7.164062 16-16 16h-96c-8.835938 0-16-7.164062-16-16zm0 0" fill="#394d5c"/><path d="m392 248h-48c-4.417969 0-8-3.582031-8-8s3.582031-8 8-8h48c4.417969 0 8 3.582031 8 8s-3.582031 8-8 8zm0 0" fill="#394d5c"/><path d="m328.617188 323.054688c1.234374 2.992187 4.148437 4.941406 7.382812 4.945312h64c4.417969 0 8-3.582031 8-8s-3.582031-8-8-8h-44.6875l10.34375-10.34375c3.03125-3.140625 2.988281-8.128906-.097656-11.214844-3.085938-3.085937-8.074219-3.128906-11.214844-.097656l-24 24c-2.28125 2.289062-2.964844 5.726562-1.726562 8.710938zm0 0" fill="#dd3e46"/><path d="m407.382812 348.945312c-1.234374-2.992187-4.148437-4.941406-7.382812-4.945312h-64c-4.417969 0-8 3.582031-8 8s3.582031 8 8 8h44.6875l-10.34375 10.34375c-2.078125 2.007812-2.914062 4.984375-2.179688 7.78125.730469 2.796875 2.914063 4.980469 5.710938 5.710938 2.796875.734374 5.773438-.101563 7.78125-2.179688l24-24c2.28125-2.289062 2.964844-5.726562 1.726562-8.710938zm0 0" fill="#dd3e46"/><path d="m248 312h-32c-4.417969 0-8-3.582031-8-8s3.582031-8 8-8h32c4.417969 0 8 3.582031 8 8s-3.582031 8-8 8zm0 0" fill="#aabece"/><path d="m296 432h-128l24-96h80zm0 0" fill="#aabece"/><g fill="#dd3e46"><path d="m216 88 24-32h-40l-56 64h176v-32zm0 0"/><path d="m248 184-24 32h40l56-64h-176v32zm0 0"/></g></svg>