<?xml version="1.0" encoding="iso-8859-1"?>
<!-- Generator: Adobe Illustrator 21.0.0, SVG Export Plug-In . SVG Version: 6.00 Build 0)  -->
<svg version="1.1" id="Capa_1" xmlns="http://www.w3.org/2000/svg" xmlns:xlink="http://www.w3.org/1999/xlink" x="0px" y="0px"
	 viewBox="0 0 587.697 587.697" style="enable-background:new 0 0 587.697 587.697;" xml:space="preserve">
<g>
	<g>
		<g id="flat_26_">
			<path style="fill:#3269A1;" d="M516.768,81.062H70.929c-22.383,0-40.531,18.148-40.531,40.531v344.512h526.9V121.592
				C557.298,99.209,539.151,81.062,516.768,81.062z"/>
			<path style="fill:#87CED9;" d="M70.929,466.104V141.858c0-11.197,9.069-20.265,20.265-20.265h405.308
				c11.197,0,20.265,9.069,20.265,20.265v324.246"/>
			<path style="fill:#71C4D1;" d="M496.502,121.592H486.37L141.858,466.104h374.91V141.858
				C516.768,130.661,507.699,121.592,496.502,121.592z"/>
			<path style="fill:#4398D1;" d="M415.238,445.839c50.512-67.038,37.116-162.336-29.922-212.858s-162.346-37.116-212.858,29.932
				c-40.804,54.149-40.804,128.776,0,182.926H415.238z"/>
			<rect x="283.716" y="202.654" style="fill:#2A7FBF;" width="20.265" height="40.531"/>
			<rect x="141.858" y="344.512" style="fill:#2A7FBF;" width="40.531" height="20.265"/>
			<rect x="405.308" y="344.512" style="fill:#2A7FBF;" width="40.531" height="20.265"/>
			
				<rect x="366.726" y="251.366" transform="matrix(0.7071 -0.7071 0.7071 0.7071 -71.5601 350.235)" style="fill:#2A7FBF;" width="40.53" height="20.265"/>
			
				<rect x="190.576" y="241.238" transform="matrix(0.7071 -0.7071 0.7071 0.7071 -126.1249 218.5148)" style="fill:#2A7FBF;" width="20.265" height="40.53"/>
			<circle style="fill:#C1C7C9;" cx="293.848" cy="354.644" r="121.592"/>
			<circle style="fill:#DADDDF;" cx="293.848" cy="354.644" r="91.194"/>
			<path style="fill:#E34B87;" d="M361.808,301.012l-14.328-14.328l-40.612,40.602c-4.053-1.986-8.511-3.02-13.021-3.04
				c-16.79,0-30.398,13.608-30.398,30.398s13.608,30.398,30.398,30.398s30.398-13.608,30.398-30.398
				c-0.02-4.509-1.054-8.967-3.04-13.021L361.808,301.012z M293.848,364.777c-5.593,0-10.133-4.539-10.133-10.133
				s4.539-10.133,10.133-10.133c5.593,0,10.133,4.539,10.133,10.133S299.442,364.777,293.848,364.777z"/>
			<rect x="253.317" y="405.308" style="fill:#2A7FBF;" width="50.663" height="20.265"/>
			<rect x="324.246" y="405.308" style="fill:#2A7FBF;" width="20.265" height="20.265"/>
			<rect x="395.175" y="151.99" style="fill:#5EB3D1;" width="91.194" height="20.265"/>
			<rect x="425.573" y="192.521" style="fill:#5EB3D1;" width="60.796" height="20.265"/>
			<rect x="101.327" y="151.99" style="fill:#5EB3D1;" width="20.265" height="20.265"/>
			<rect x="182.389" y="151.99" style="fill:#5EB3D1;" width="20.265" height="20.265"/>
			<rect x="101.327" y="192.521" style="fill:#5EB3D1;" width="50.663" height="20.265"/>
			<rect x="141.858" y="151.99" style="fill:#5EB3D1;" width="20.265" height="20.265"/>
			<path style="fill:#DADDDF;" d="M557.298,506.635h-526.9C13.608,506.635,0,493.027,0,476.237v-30.398h231.856
				c6.941,0,13.294,3.921,16.395,10.133l0,0c3.101,6.211,9.454,10.133,16.395,10.133h58.405c6.941,0,13.294-3.921,16.395-10.133l0,0
				c3.101-6.211,9.454-10.133,16.395-10.133h231.856v30.398C587.697,493.027,574.088,506.635,557.298,506.635z"/>
			<path style="fill:#D0D4D6;" d="M557.298,445.839v30.398c0,16.79-13.608,30.398-30.398,30.398h30.398
				c16.79,0,30.398-13.608,30.398-30.398v-30.398H557.298z"/>
		</g>
	</g>
</g>
<g>
</g>
<g>
</g>
<g>
</g>
<g>
</g>
<g>
</g>
<g>
</g>
<g>
</g>
<g>
</g>
<g>
</g>
<g>
</g>
<g>
</g>
<g>
</g>
<g>
</g>
<g>
</g>
<g>
</g>
</svg>
