<svg height="464pt" viewBox="0 -64 464 464" width="464pt" xmlns="http://www.w3.org/2000/svg"><path d="m152 0h312v64h-312zm0 0" fill="#f49c60"/><path d="m0 0h152v64h-152zm0 0" fill="#ffd782"/><path d="m0 64h464v192h-464zm0 0" fill="#7d8d9c"/><path d="m48 96h32c8.835938 0 16 7.164062 16 16v16c0 8.835938-7.164062 16-16 16h-32c-8.835938 0-16-7.164062-16-16v-16c0-8.835938 7.164062-16 16-16zm0 0" fill="#ffd782"/><path d="m48 176h32c8.835938 0 16 7.164062 16 16v16c0 8.835938-7.164062 16-16 16h-32c-8.835938 0-16-7.164062-16-16v-16c0-8.835938 7.164062-16 16-16zm0 0" fill="#ffd782"/><path d="m360 24h16v16h-16zm0 0" fill="#dd3e46"/><path d="m392 24h16v16h-16zm0 0" fill="#dd3e46"/><path d="m424 24h16v16h-16zm0 0" fill="#dd3e46"/><g fill="#f4f4e6"><path d="m216 152h-88c-4.417969 0-8-3.582031-8-8s3.582031-8 8-8h88c4.417969 0 8 3.582031 8 8s-3.582031 8-8 8zm0 0"/><path d="m144 120h-16c-4.417969 0-8-3.582031-8-8s3.582031-8 8-8h16c4.417969 0 8 3.582031 8 8s-3.582031 8-8 8zm0 0"/><path d="m216 120h-48c-4.417969 0-8-3.582031-8-8s3.582031-8 8-8h48c4.417969 0 8 3.582031 8 8s-3.582031 8-8 8zm0 0"/><path d="m216 232h-88c-4.417969 0-8-3.582031-8-8s3.582031-8 8-8h88c4.417969 0 8 3.582031 8 8s-3.582031 8-8 8zm0 0"/><path d="m144 200h-16c-4.417969 0-8-3.582031-8-8s3.582031-8 8-8h16c4.417969 0 8 3.582031 8 8s-3.582031 8-8 8zm0 0"/><path d="m216 200h-48c-4.417969 0-8-3.582031-8-8s3.582031-8 8-8h48c4.417969 0 8 3.582031 8 8s-3.582031 8-8 8zm0 0"/><path d="m272 104h144v48h-144zm0 0"/></g><path d="m304 248h128v72c0 8.835938-7.164062 16-16 16h-96c-8.835938 0-16-7.164062-16-16zm0 0" fill="#ffd782"/><path d="m320 192c8.835938 0 16 7.164062 16 16v48h-32v-48c0-8.835938 7.164062-16 16-16zm0 0" fill="#f2b044"/><path d="m256 304c0-8.835938 7.164062-16 16-16h32v32h-32c-8.835938 0-16-7.164062-16-16zm0 0" fill="#f9c262"/><path d="m336 224h32v32h-32zm0 0" fill="#f9c262"/><path d="m368 224h32v32h-32zm0 0" fill="#f2b044"/><path d="m400 224h32v32h-32zm0 0" fill="#f9c262"/></svg>